<?xml version="1.0" standalone="no"?>
<!DOCTYPE svg PUBLIC "-//W3C//DTD SVG 20010904//EN"
 "http://www.w3.org/TR/2001/REC-SVG-20010904/DTD/svg10.dtd">
<svg version="1.0" xmlns="http://www.w3.org/2000/svg"
 width="1024.000000pt" height="768.000000pt" viewBox="0 0 1024.000000 768.000000"
 preserveAspectRatio="xMidYMid meet">
<metadata>
Created by potrace 1.16, written by Peter Selinger 2001-2019
</metadata>
<g transform="translate(0.000000,768.000000) scale(0.100000,-0.100000)"
fill="#000000" stroke="none">
<path d="M3328 4166 c-66 -18 -112 -57 -144 -121 -22 -46 -27 -69 -27 -135 0
-147 69 -238 201 -262 132 -25 244 22 295 121 23 47 27 66 27 140 0 70 -5 96
-24 138 -51 108 -185 157 -328 119z m151 -122 c68 -48 68 -220 0 -268 -30 -21
-88 -21 -118 0 -32 23 -51 73 -51 134 0 95 41 150 110 150 20 0 46 -7 59 -16z"/>
<path d="M5358 4166 c-66 -18 -112 -57 -144 -121 -22 -46 -27 -69 -27 -135 0
-147 69 -238 201 -262 132 -25 244 22 295 121 23 47 27 66 27 140 0 70 -5 96
-24 138 -51 108 -185 157 -328 119z m151 -122 c32 -23 51 -73 51 -134 0 -95
-41 -150 -110 -150 -69 0 -110 55 -110 150 0 95 41 150 110 150 20 0 46 -7 59
-16z"/>
<path d="M2590 3910 l0 -260 80 0 80 0 0 61 c0 57 3 65 37 103 20 22 40 42 45
44 4 2 31 -44 60 -102 l53 -106 93 0 c73 0 93 3 89 13 -3 7 -46 80 -96 162
l-90 150 89 91 c50 50 90 94 90 98 0 3 -45 6 -99 6 l-99 0 -79 -94 c-43 -52
-81 -95 -85 -95 -5 -1 -8 42 -8 94 l0 95 -80 0 -80 0 0 -260z"/>
<path d="M3760 3910 l0 -260 80 0 80 0 0 61 c0 57 3 65 37 103 20 22 40 42 45
44 4 2 31 -44 60 -102 l53 -106 93 0 c73 0 93 3 89 13 -3 7 -46 80 -96 162
l-90 150 89 91 c50 50 90 94 90 98 0 3 -45 6 -99 6 l-99 0 -79 -94 c-43 -52
-81 -95 -85 -95 -5 -1 -8 42 -8 94 l0 95 -80 0 -80 0 0 -260z"/>
<path d="M4362 3988 c4 -208 17 -253 82 -303 74 -57 258 -57 333 1 66 50 76
86 81 297 l4 187 -81 0 -81 0 0 -170 c0 -214 -10 -240 -90 -240 -80 0 -90 26
-90 240 l0 170 -81 0 -81 0 4 -182z"/>
<path d="M5800 3910 l0 -260 80 0 80 0 0 61 c0 57 3 65 37 103 20 22 40 42 45
44 4 2 31 -44 60 -102 l53 -106 93 0 c73 0 93 3 89 13 -3 7 -46 80 -96 162
l-90 150 89 91 c50 50 90 94 90 98 0 3 -45 6 -99 6 l-99 0 -79 -94 c-43 -52
-81 -95 -85 -95 -5 -1 -8 42 -8 94 l0 95 -80 0 -80 0 0 -260z"/>
<path d="M6402 3988 c4 -208 17 -253 82 -303 75 -57 258 -57 334 1 63 49 76
95 80 302 l4 182 -80 0 -81 0 -3 -186 c-3 -181 -4 -186 -27 -205 -13 -10 -38
-19 -56 -19 -86 0 -95 24 -95 240 l0 170 -81 0 -81 0 4 -182z"/>
<path d="M7000 3910 l0 -260 205 0 205 0 0 65 0 65 -125 0 -125 0 0 195 0 195
-80 0 -80 0 0 -260z"/>
<path d="M7472 3988 c4 -208 16 -253 82 -303 78 -59 270 -56 341 6 58 51 68
92 73 297 l4 182 -80 0 -81 0 -3 -186 c-3 -181 -4 -186 -27 -205 -26 -22 -87
-25 -112 -6 -34 26 -39 54 -39 226 l0 171 -81 0 -81 0 4 -182z"/>
</g>
</svg>
